PathFileType	4	(X/Y/Z)	c:/Users/goper/Files/vsCode/490R/osim_files/A01/A01_PWS_01.trc
DataRate	CameraRate	NumFrames	NumMarkers	Units                	OrigDataRate	OrigDataStartFrame	OrigNumFrames
120.00	120.00	7	36	mm	120.0	708	1132
                Frame#	Time	Mobility_markerset:LPSIS			Mobility_markerset:LASIS			Mobility_markerset:LTH1			Mobility_markerset:LTH2			Mobility_markerset:LTH3			Mobility_markerset:LTH4			Mobility_markerset:LLFE			Mobility_markerset:LMFE			Mobility_markerset:LSH1			Mobility_markerset:LSH2			Mobility_markerset:LSH3			Mobility_markerset:LSH4			Mobility_markerset:LLMAL			Mobility_markerset:LMMAL			Mobility_markerset:LCAL			Mobility_markerset:LMTP5			Mobility_markerset:LTOE			Mobility_markerset:LMTP1			Mobility_markerset:RPSIS			Mobility_markerset:RASIS			Mobility_markerset:RTH1			Mobility_markerset:RTH2			Mobility_markerset:RTH3			Mobility_markerset:RTH4			Mobility_markerset:RLFE			Mobility_markerset:RMFE			Mobility_markerset:RSH1			Mobility_markerset:RSH2			Mobility_markerset:RSH3			Mobility_markerset:RSH4			Mobility_markerset:RLMAL			Mobility_markerset:RMMAL			Mobility_markerset:RCAL			Mobility_markerset:RMTP1			Mobility_markerset:RTOE			Mobility_markerset:RMTP5		
		X1	Y1	Z1	X2	Y2	Z2	X3	Y3	Z3	X4	Y4	Z4	X5	Y5	Z5	X6	Y6	Z6	X7	Y7	Z7	X8	Y8	Z8	X9	Y9	Z9	X10	Y10	Z10	X11	Y11	Z11	X12	Y12	Z12	X13	Y13	Z13	X14	Y14	Z14	X15	Y15	Z15	X16	Y16	Z16	X17	Y17	Z17	X18	Y18	Z18	X19	Y19	Z19	X20	Y20	Z20	X21	Y21	Z21	X22	Y22	Z22	X23	Y23	Z23	X24	Y24	Z24	X25	Y25	Z25	X26	Y26	Z26	X27	Y27	Z27	X28	Y28	Z28	X29	Y29	Z29	X30	Y30	Z30	X31	Y31	Z31	X32	Y32	Z32	X33	Y33	Z33	X34	Y34	Z34	X35	Y35	Z35	X36	Y36	Z36

708	5.89167	-1353.93311	1019.63086	388.15402	-1602.39551	996.90924	447.24689	-1580.97510	678.83661	508.06339	-1602.25171	637.40863	496.91348	-1635.94153	702.64398	501.64920	-1648.25342	659.65942	488.67014	-1660.80371	539.52820	454.19391	-1663.48926	546.64301	315.95319	-1641.56726	372.84052	445.59564	-1647.88672	324.80005	449.16571	-1703.79053	374.59122	438.30453	-1699.77893	328.56744	440.36816	-1689.27148	85.73770	425.04202	-1673.62744	84.57436	347.74637	-1608.64612	52.27649	392.62689	-1834.00293	44.03666	433.27393	-1854.10632	69.37545	364.84882	-1836.19275	55.39491	332.79019	-1344.94312	1014.19592	286.51077	-1563.60730	953.47058	188.83252	-1378.93640	647.96619	133.10077	-1382.68567	604.27979	137.86693	-1441.54199	645.20587	128.81857	-1435.25598	602.95874	132.48599	-1399.31885	457.22604	168.38069	-1419.31238	466.06393	291.60458	-1191.99060	372.21140	170.65994	-1161.94629	338.89343	171.74207	-1233.08032	327.53824	164.72789	-1198.37500	301.95023	165.64252	-1052.34216	198.13228	202.52747	-1085.38770	192.45399	285.33481	-999.16003	221.11742	253.89139	-1108.46143	54.84551	297.52411	-1140.45410	53.66710	250.75894	-1088.23230	54.46019	183.52434
709	5.90000	-1365.39697	1021.08429	388.44794	-1613.68152	999.20001	448.75659	-1589.38806	679.55908	509.73529	-1609.81470	637.49286	499.31714	-1644.25769	702.30420	503.63156	-1656.50452	659.54407	490.55701	-1668.04089	539.52148	455.87253	-1670.97888	547.01514	317.61459	-1646.53955	372.96036	446.62640	-1652.10352	325.32275	449.69370	-1708.61731	373.93729	439.53006	-1704.10315	328.04669	441.37921	-1689.94324	85.50414	425.24545	-1674.42847	84.58264	348.00290	-1609.02930	52.59438	392.70352	-1834.32483	42.42366	433.41409	-1854.79272	67.82228	365.23779	-1836.84937	54.13976	333.02505	-1356.60413	1014.51514	286.66669	-1577.11377	955.51294	192.16910	-1396.16687	645.64008	132.77933	-1400.91248	602.07794	137.36006	-1458.89148	644.47662	128.40535	-1453.39087	601.92853	131.92935	-1420.53577	455.14905	167.24496	-1441.05664	463.51657	290.20303	-1210.58215	376.34857	170.77661	-1179.70129	343.83090	172.00435	-1250.23376	330.52725	164.47565	-1213.58459	304.35040	165.76703	-1066.76807	207.20399	203.22163	-1099.70740	199.79913	285.91220	-1015.91937	233.99179	254.56041	-1114.52051	60.24188	297.84271	-1145.89307	56.37210	250.97879	-1092.72449	60.97089	184.08487
710	5.90833	-1376.49060	1022.44086	388.81796	-1624.68237	1001.43646	450.27057	-1597.24463	680.04932	511.26910	-1617.28040	637.89563	500.91187	-1652.72986	702.54834	505.76141	-1664.21265	659.45599	492.48883	-1674.86023	539.51617	457.47079	-1678.05469	547.38513	319.16318	-1651.17908	373.36050	447.77374	-1655.97766	325.49448	450.61691	-1713.31958	373.37640	440.70020	-1708.03564	327.45813	442.46341	-1690.47498	85.26813	425.42606	-1675.06311	84.60824	348.23279	-1609.43213	52.92081	392.79877	-1834.60486	41.22854	433.47543	-1855.24756	66.46711	365.57089	-1837.31384	53.06170	333.28860	-1367.65967	1014.85602	286.96948	-1588.54883	957.26691	194.40897	-1413.57861	643.12811	132.32256	-1419.42749	599.65350	136.75983	-1476.18091	643.64032	128.18428	-1471.95862	600.95026	131.66940	-1441.90479	453.42188	166.33760	-1463.77954	460.79510	288.67023	-1229.82568	380.66080	171.08278	-1198.01038	349.14267	172.37964	-1268.00330	333.74490	164.30513	-1230.70361	308.51260	165.81700	-1082.06140	216.55333	204.08511	-1114.90381	207.30956	286.51025	-1034.04272	246.65228	255.72240	-1121.35620	65.95161	298.32858	-1151.38611	59.75474	251.14418	-1097.85669	68.45377	184.63895
711	5.91667	-1387.42688	1023.67914	389.10995	-1635.43225	1003.58569	451.76135	-1604.83997	680.57916	512.89044	-1624.43530	638.29620	502.53296	-1660.67761	702.58325	507.58914	-1671.54102	659.15515	494.22623	-1681.31580	539.46564	458.94949	-1684.73730	547.60895	320.65469	-1655.80786	373.54425	448.68210	-1660.07690	325.39856	451.92621	-1717.58093	372.87112	441.73615	-1711.81677	327.08328	443.44305	-1691.19702	84.98099	425.34586	-1675.65747	84.64982	348.40958	-1609.81580	53.26917	392.89804	-1834.93274	40.15721	433.50571	-1855.82422	65.45397	365.72180	-1837.69873	52.15477	333.38989	-1378.57642	1015.07349	287.23788	-1599.99341	959.18060	196.64529	-1430.95276	640.62085	131.72319	-1438.27490	597.32935	136.18399	-1493.54663	643.04114	127.97963	-1490.69458	600.26019	131.36374	-1463.31531	452.31448	165.69269	-1487.15771	458.50186	286.98975	-1249.54150	385.11218	171.53009	-1216.84155	354.54388	173.00775	-1286.41028	337.26740	164.32239	-1248.54395	312.97574	166.02104	-1098.37891	225.83975	205.19554	-1131.09021	214.48300	287.39407	-1053.42664	258.79578	257.02344	-1129.34302	72.20950	298.34427	-1158.47742	62.73611	251.11011	-1104.45764	76.72900	185.25522
712	5.92500	-1398.09375	1024.90808	389.40225	-1646.05444	1005.68842	453.22595	-1612.33289	681.21289	514.46198	-1631.53589	638.76886	504.08051	-1668.20813	702.79126	509.24066	-1678.76648	659.30646	495.97873	-1687.64880	539.51581	460.36356	-1691.13855	547.96753	322.04675	-1659.96545	373.86838	449.64273	-1663.76758	325.67197	452.71442	-1721.79810	372.41559	442.75714	-1715.46155	326.71350	444.23859	-1691.08582	85.41004	426.00647	-1676.15979	84.81475	348.52390	-1610.12634	53.61248	392.95108	-1835.11658	39.70356	433.45700	-1856.30750	64.51105	365.83707	-1838.07275	51.59671	333.42252	-1389.12146	1015.37897	287.43582	-1611.04785	960.98737	198.63725	-1448.51648	638.29126	131.10796	-1457.25952	595.28992	135.63229	-1511.00525	642.82202	127.84943	-1509.47327	600.00995	131.09993	-1484.64685	451.78409	165.36305	-1510.63904	456.88660	285.34186	-1269.71619	389.54050	172.23572	-1236.32312	359.97339	173.57492	-1305.19177	340.75839	164.37476	-1266.87219	317.42361	166.27118	-1115.66626	234.58638	206.32384	-1148.37280	221.32607	288.45737	-1074.16064	270.16565	258.45670	-1138.82690	78.42739	298.34079	-1166.19177	64.80042	251.07225	-1112.61914	85.31432	185.87105
713	5.93333	-1408.45947	1026.19336	389.73557	-1656.46765	1007.71759	454.69534	-1619.58118	681.87146	515.83685	-1638.27112	639.25616	505.45700	-1675.73840	703.07312	510.56363	-1685.73120	659.50677	497.37589	-1693.46545	539.44360	461.62225	-1697.14551	548.22382	323.35638	-1664.42908	373.70441	450.63690	-1667.02576	325.93356	453.46313	-1725.70081	372.10825	443.63943	-1718.71619	326.45544	445.06482	-1691.44568	85.50137	426.09122	-1676.60388	85.04474	348.63004	-1610.35022	53.96808	392.99832	-1835.22778	39.37441	433.54449	-1856.38232	64.26936	365.75739	-1838.20361	51.32653	333.45001	-1399.29614	1015.76270	287.68787	-1622.04834	962.69440	200.43616	-1466.11023	636.70636	130.64709	-1476.10571	594.01770	135.18301	-1528.32800	643.16187	127.67416	-1528.25403	600.20978	130.97162	-1505.99963	451.92081	165.17703	-1533.83960	456.18961	283.84833	-1290.39380	393.70190	172.99222	-1256.41101	364.79831	173.92406	-1324.68359	344.20334	164.56380	-1285.84033	321.67599	166.50917	-1134.00623	242.60033	207.52008	-1166.60657	227.69272	289.64661	-1095.67578	280.42798	260.05194	-1149.12537	84.39979	298.27774	-1176.19885	67.05811	250.70824	-1122.39246	93.78569	186.92818
714	5.94167	-1418.31067	1027.45862	390.17477	-1666.62402	1009.53998	456.09964	-1626.93201	682.92810	517.05548	-1644.95251	639.94391	506.75238	-1682.99951	703.38733	511.76047	-1692.56628	659.76642	498.44666	-1699.02759	539.42480	462.94269	-1702.93787	548.45911	324.68506	-1667.92725	374.27466	451.38208	-1669.27649	326.85416	453.22610	-1729.29077	371.74130	444.42603	-1722.11816	326.23785	445.71027	-1691.78503	85.62150	426.17966	-1676.94543	85.29996	348.66812	-1610.53174	54.35874	392.99808	-1835.51562	39.04943	433.48517	-1856.65833	63.73561	365.82642	-1838.47119	51.00524	333.40723	-1409.37451	1016.18115	288.08835	-1632.83850	964.24597	201.91095	-1483.51392	635.92139	130.56607	-1494.55945	593.78638	134.82356	-1545.83606	644.14008	127.71450	-1546.59448	601.13556	130.72058	-1526.83521	452.72202	164.74043	0.00000	0.00000	0.00000	-1311.31921	397.59442	173.77689	-1276.62866	369.49930	174.86589	-1344.67883	347.27750	164.91998	-1305.32007	325.60266	166.77716	-1153.08032	249.81538	208.77376	-1185.68103	233.28926	290.82031	-1117.71924	289.44522	262.01859	-1161.70178	89.71294	298.50900	-1186.55579	67.59653	250.54739	-1133.61267	101.89262	188.25999
